<svg width="48" height="48" viewBox="0 0 48 48" fill="none" xmlns="http://www.w3.org/2000/svg">
<g clip-path="url(#clip0_4072_22)">
<path d="M6 0.000976562V6.00098H0V10.001H6V16.001H10V10.001H16V6.00098H10V0.000976562H6ZM20 6.00098V10.001H38V14.001H26C23.8 14.001 22 15.801 22 18.001V30.001C22 32.201 23.8 34.001 26 34.001H38V38.001H10V20.001H6V38.001C6 39.0618 6.42143 40.0793 7.17157 40.8294C7.92172 41.5795 8.93913 42.001 10 42.001H38C40.2 42.001 42 40.201 42 38.001V33.441C42.6046 33.092 43.1072 32.5908 43.4581 31.9873C43.809 31.3838 43.9958 30.699 44 30.001V18.001C43.9958 17.3029 43.809 16.6181 43.4581 16.0146C43.1072 15.4112 42.6046 14.91 42 14.561V10.001C42 7.80098 40.2 6.00098 38 6.00098H20ZM26 18.001H40V30.001H26V18.001ZM32 21.001C31.2044 21.001 30.4413 21.317 29.8787 21.8797C29.3161 22.4423 29 23.2053 29 24.001C29 24.7966 29.3161 25.5597 29.8787 26.1223C30.4413 26.6849 31.2044 27.001 32 27.001C32.7956 27.001 33.5587 26.6849 34.1213 26.1223C34.6839 25.5597 35 24.7966 35 24.001C35 23.2053 34.6839 22.4423 34.1213 21.8797C33.5587 21.317 32.7956 21.001 32 21.001Z" fill="black"/>
</g>
<defs>
<clipPath id="clip0_4072_22">
<rect width="48" height="48" fill="white" transform="translate(0 0.000976562)"/>
</clipPath>
</defs>
</svg>
