<svg width="48" height="48" viewBox="0 0 48 48" fill="none" xmlns="http://www.w3.org/2000/svg">
<path fill-rule="evenodd" clip-rule="evenodd" d="M24 4.00098C24.3292 4.00093 24.6533 4.08213 24.9436 4.23739C25.2339 4.39264 25.4813 4.61714 25.664 4.89098L37.638 22.853C37.8716 23.1855 37.998 23.5814 38.0005 23.9878C38.003 24.3941 37.8815 24.7916 37.652 25.127L25.664 43.111C25.4814 43.3849 25.2339 43.6095 24.9437 43.7648C24.6534 43.9202 24.3293 44.0014 24 44.0014C23.6708 44.0014 23.3467 43.9202 23.0564 43.7648C22.7661 43.6095 22.5187 43.3849 22.336 43.111L10.348 25.127C10.1603 24.8525 10.0443 24.5354 10.0104 24.2046C9.9765 23.8738 10.0259 23.5398 10.154 23.233C10.2093 23.0991 10.2791 22.9717 10.362 22.853L22.336 4.89298C22.5185 4.61877 22.7659 4.39388 23.0562 4.23827C23.3464 4.08266 23.6707 4.00115 24 4.00098ZM26 12.607L32.884 22.931L26 25.227V12.607ZM22 12.607V25.227L15.116 22.931L22 12.607ZM24 38.395L16.898 27.741L23.368 29.899C23.7783 30.0356 24.2218 30.0356 24.632 29.899L31.102 27.741L24 38.395Z" fill="black"/>
</svg>
