<svg width="203" height="58" viewBox="0 0 203 58" fill="none" xmlns="http://www.w3.org/2000/svg">
<path fill-rule="evenodd" clip-rule="evenodd" d="M19.7073 3.26836C16.2555 5.06974 13.4186 6.59067 13.4294 6.65539C13.4294 6.81719 21.7244 11.0132 22.0156 11.0024C22.145 11.0024 23.1158 10.5494 24.1729 10.01L26.093 9.02846L28.1856 10.1071L30.2782 11.1858L33.7083 9.64329C38.8644 7.32415 39.4037 7.06528 39.3174 6.98977C39.2095 6.87112 37.3542 5.87874 32.3276 3.23601C29.9006 1.96318 27.5492 0.701132 27.0961 0.453039C26.6431 0.194158 26.2116 0 26.1361 0C26.0606 0 23.159 1.46699 19.7073 3.26836ZM4.55201 11.1211L0.949264 12.9764L0.949264 21.1311C0.949264 25.6184 0.99241 29.2858 1.05713 29.2858C1.11106 29.2858 2.88008 28.52 4.99426 27.5816L8.82352 25.8773L8.82352 17.2803L10.6896 18.2942C12.135 19.0816 13.5696 19.8583 15.0151 20.6457L17.4744 21.9725L18.5639 21.4763C19.2542 21.1635 19.9338 20.8507 20.6133 20.5378C21.1419 20.2897 22.4363 19.7073 23.4934 19.2434C24.5505 18.7796 25.5213 18.305 25.6615 18.1971C25.8449 18.0569 23.6012 16.8164 17.3666 13.6128C12.6636 11.1966 8.66172 9.2334 8.47835 9.24419C8.29497 9.25498 6.52596 10.0963 4.55201 11.1211ZM39.9538 11.6388C37.5052 12.7499 35.4989 13.6991 35.4989 13.753C35.4989 13.807 36.8365 14.6052 38.4653 15.522C40.1048 16.4389 41.4316 17.2371 41.4316 17.3018C41.4316 17.3666 39.9862 18.0677 38.2172 18.8551C36.4481 19.6533 31.9825 21.6704 28.2826 23.3424L15.9104 28.9407C12.793 30.3429 9.98848 31.6158 9.67567 31.756C3.32233 34.636 1.5641 35.4343 1.3268 35.5745C1.08949 35.7147 1.03556 36.5129 0.99241 40.5364L0.938477 45.3364L4.1529 46.976L7.36732 48.6156L11.833 46.5985C14.2816 45.4874 16.2987 44.5274 16.2987 44.4519C16.2987 44.3764 15.8456 44.0852 15.2955 43.7939C14.7454 43.5027 13.602 42.8555 12.7499 42.3593C11.9085 41.8631 11.0671 41.4101 10.8838 41.3454C10.7004 41.2806 10.5494 41.1836 10.5494 41.1081C10.5494 41.0433 12.5126 40.1049 14.918 39.037C19.5778 36.9552 23.1374 35.348 30.7852 31.8854C34.2045 30.3429 37.6239 28.7897 41.054 27.2472C44.0635 25.888 47.5584 24.3024 48.8204 23.7199L51.118 22.6628L51.1719 17.8088L51.2259 12.9548L47.9683 11.2937C46.1777 10.3768 44.6352 9.62172 44.5597 9.62172C44.4734 9.62172 42.4024 10.5386 39.9538 11.6388ZM50.2551 29.1564C49.7697 29.3937 48.8204 29.836 48.1409 30.138C47.4613 30.44 46.1669 31.0225 45.2716 31.4324L43.6428 32.1767L43.6105 36.4374C43.5889 38.7781 43.5026 40.6874 43.4163 40.6766C43.2222 40.6442 40.1695 39.0802 37.0953 37.4298C34.8733 36.2433 34.7331 36.1893 34.2153 36.4482C33.9133 36.5992 32.1119 37.4082 30.2135 38.2388C28.315 39.0802 26.697 39.8136 26.6215 39.8892C26.546 39.9539 30.3645 42.0249 35.1214 44.4951L43.7507 48.9823L47.4397 47.0731C49.4676 46.0268 51.1935 45.0668 51.269 44.9481C51.4524 44.6784 51.4308 28.6926 51.2582 28.7142C51.1827 28.7249 50.7297 28.9191 50.2551 29.1564ZM29.8251 47.9145C29.1887 48.1841 28.5415 48.4646 27.9051 48.745C25.9743 49.5756 26.3518 49.608 24.0543 48.4646C22.5226 47.6987 21.8646 47.4722 21.5733 47.5801C21.3576 47.6664 19.5131 48.4969 17.4636 49.4246C15.425 50.3522 13.6775 51.1181 13.5912 51.1181C12.7283 51.1181 14.1629 51.9702 19.6641 54.7424L26.1145 58L28.8328 56.6624C30.3213 55.929 33.3416 54.4512 35.5205 53.3833C37.7102 52.3154 39.4684 51.4201 39.4361 51.377C39.4037 51.3446 37.57 50.4062 35.3587 49.2844L31.3461 47.2565L29.8251 47.9145Z" fill="white"/>
<path d="M150.478 22.5179C146.595 23.0004 143.733 25.2046 142.68 28.4946C141.957 30.7317 142.044 32.8592 142.955 35.0196C144.029 37.5748 146.343 39.3953 149.414 40.0861C150.302 40.2945 152.594 40.3055 153.515 40.13C157.079 39.4282 159.569 37.2129 160.6 33.8572C160.841 33.0566 160.874 32.8154 160.874 31.3897C160.874 29.9641 160.841 29.7228 160.6 28.9223C159.58 25.6104 157.178 23.4281 153.746 22.7043C153.033 22.5617 151.081 22.4521 150.478 22.5179ZM152.649 26.8716C153.932 27.2115 155.149 28.045 155.709 29.021C156.575 30.4905 156.542 32.4316 155.643 33.8353C154.031 36.3685 150.346 36.7852 148.131 34.6797C146.288 32.925 146.223 30.1396 147.977 28.2424C149.151 26.9922 151.015 26.4548 152.649 26.8716Z" fill="white"/>
<path d="M169.45 22.5179C165.568 23.0004 162.706 25.2046 161.653 28.4946C160.929 30.7317 161.017 32.8592 161.927 35.0196C163.002 37.5748 165.316 39.3953 168.386 40.0861C169.275 40.2945 171.567 40.3055 172.488 40.13C176.052 39.4282 178.541 37.2129 179.572 33.8572C179.814 33.0566 179.846 32.8154 179.846 31.3897C179.846 29.9641 179.814 29.7228 179.572 28.9223C178.552 25.6104 176.151 23.4281 172.718 22.7043C172.005 22.5617 170.053 22.4521 169.45 22.5179ZM171.633 26.8716C172.927 27.2115 174.133 28.045 174.692 29.021C175.559 30.4905 175.526 32.4316 174.626 33.8353C173.014 36.3685 169.33 36.7852 167.114 34.6797C165.272 32.925 165.206 30.1396 166.961 28.2424C168.123 26.9922 169.988 26.4548 171.633 26.8716Z" fill="white"/>
<path d="M195 22.5734C192.741 22.9023 191.041 24.3499 190.493 26.4335C189.967 28.3965 190.34 30.4034 191.392 31.3794C192.017 31.9606 192.763 32.3006 194.814 32.9586C196.799 33.5946 197.248 33.8688 197.457 34.5378C197.687 35.3054 197.117 36.2266 196.251 36.4679C195.779 36.5995 194.891 36.5995 194.299 36.4569C193.651 36.3034 192.489 35.7331 191.996 35.3054C191.776 35.0971 191.524 34.9435 191.48 34.9435C191.436 34.9435 191.184 35.3164 190.943 35.777C190.603 36.424 190.493 36.5666 190.471 36.3911L190.438 36.1718L187.795 36.1718L185.163 36.1718L185.163 29.5261L185.163 22.8804L182.981 22.8804L180.799 22.8804L180.799 31.4014L180.799 39.9223L185.613 39.9223L190.427 39.9223V39.4507C190.427 39.1985 190.449 38.9902 190.471 38.9902C190.493 38.9902 190.888 39.1766 191.349 39.3849C192.774 40.0539 193.684 40.2513 195.45 40.2513C197.172 40.2513 197.983 40.0978 199.047 39.5823C199.891 39.1766 201.032 38.047 201.416 37.2575C202.172 35.6783 202.282 33.5508 201.646 32.2019C201.536 31.9497 201.163 31.4562 200.813 31.1162C200.067 30.3705 199.266 29.9648 197.216 29.3068C196.404 29.0545 195.593 28.7475 195.406 28.6378C194.748 28.2321 194.617 27.3438 195.132 26.7845C196.031 25.8194 197.632 25.9072 199.299 27.0148L199.628 27.2231L200.516 25.5233C200.988 24.6021 201.383 23.8235 201.361 23.8126C201.262 23.7139 200.023 23.2204 199.321 23.001C197.841 22.5405 196.283 22.376 195 22.5734Z" fill="white"/>
<path d="M72.3975 28.977L72.3975 40.2066L76.3673 40.2066C78.5496 40.2066 80.8306 40.1408 81.4228 40.075C86.3248 39.4719 89.9438 36.5 91.1062 32.1353C91.49 30.6877 91.5778 28.1435 91.3036 26.6301C90.7443 23.6911 89.22 21.3224 86.8732 19.7213C85.8204 18.9975 84.8773 18.6027 83.3639 18.186C82.1795 17.8679 81.9931 17.8679 77.2775 17.8021L72.4084 17.7473L72.4084 28.977H72.3975ZM81.0609 22.3313C84.1425 22.9893 86.1932 25.5664 86.1932 28.7905C86.1823 30.929 85.5243 32.7714 84.296 33.9886C83.0788 35.2169 81.2693 35.8091 78.747 35.82L77.5517 35.82L77.5517 28.9879L77.5517 22.1558L78.8786 22.1558C79.6024 22.1558 80.5784 22.2436 81.0609 22.3313Z" fill="white"/>
<path d="M93.1543 28.9885L93.1543 40.2072L102.607 40.1962L112.049 40.1962L114.484 36.7747C115.833 34.9104 116.962 33.3751 116.995 33.3751C117.05 33.3751 118.18 34.9104 119.518 36.7966L121.963 40.2182L125.034 40.2182C126.712 40.2182 128.093 40.1743 128.093 40.1414C128.093 40.0975 126.284 37.5753 124.102 34.5375L120.11 29.0104L123.926 23.6807C126.032 20.7637 127.863 18.2523 127.984 18.1098C128.225 17.8685 128.225 17.9014 128.225 20.1495V22.4306L130.55 22.4306L132.875 22.4306L132.875 31.3244L132.875 40.2182L135.649 40.2182L138.424 40.2182L138.424 31.3244L138.424 22.4306L141.132 22.4086L143.83 22.3648L142.383 20.0837L140.935 17.8027L131.46 17.7917L121.974 17.7917L119.54 21.2133C118.191 23.0776 117.061 24.6129 117.028 24.6348C116.984 24.6348 115.855 23.0995 114.517 21.2133L112.071 17.7917L102.629 17.7917L93.1762 17.7917L93.1762 28.9885H93.1543ZM109.834 23.3737C112.006 26.3785 113.782 28.9008 113.782 28.9775C113.782 29.0543 112.006 31.5985 109.823 34.6253L105.853 40.1304L105.81 37.981L105.788 35.8316L102.048 35.8316L98.3085 35.8316V33.3093L98.3085 30.798L101.335 30.798L104.362 30.798V28.6705L104.362 26.543L101.335 26.543L98.3085 26.543V24.3497L98.3085 22.1564L102.048 22.1564L105.788 22.1564L105.788 20.0289C105.788 18.8555 105.81 17.9014 105.842 17.9014C105.875 17.9014 107.663 20.3689 109.834 23.3737Z" fill="white"/>
</svg>
