<svg width="48" height="48" viewBox="0 0 48 48" fill="none" xmlns="http://www.w3.org/2000/svg">
<path d="M20 6.00098V10.001H38V14.001H26C23.8 14.001 22 15.801 22 18.001V30.001C22 32.201 23.8 34.001 26 34.001H38V38.001H10V20.001H6V38.001C6 39.0618 6.42143 40.0793 7.17157 40.8294C7.92172 41.5795 8.93913 42.001 10 42.001H38C40.2 42.001 42 40.201 42 38.001V33.441C42.6046 33.092 43.1072 32.5908 43.4581 31.9873C43.809 31.3838 43.9958 30.699 44 30.001V18.001C43.9958 17.3029 43.809 16.6181 43.4581 16.0146C43.1072 15.4112 42.6046 14.91 42 14.561V10.001C42 7.80098 40.2 6.00098 38 6.00098H20ZM26 18.001H40V30.001H26V18.001ZM32 21.001C31.2044 21.001 30.4413 21.317 29.8787 21.8797C29.3161 22.4423 29 23.2053 29 24.001C29 24.7966 29.3161 25.5597 29.8787 26.1223C30.4413 26.6849 31.2044 27.001 32 27.001C32.7956 27.001 33.5587 26.6849 34.1213 26.1223C34.6839 25.5597 35 24.7966 35 24.001C35 23.2053 34.6839 22.4423 34.1213 21.8797C33.5587 21.317 32.7956 21.001 32 21.001Z" fill="black"/>
<path d="M9.22909 9.63451C7.18946 11.6763 7.21746 14.9497 9.2168 16.9601C9.22056 16.9642 9.225 16.9687 9.22909 16.9728L11.5231 19.2668C13.5465 21.2902 16.8384 21.2899 18.8614 19.2668C20.8847 17.2438 20.8847 13.9516 18.8614 11.9286L17.5947 10.6619C17.2588 10.3259 16.6803 10.5492 16.6629 11.0239C16.6408 11.6289 16.5323 12.2367 16.3321 12.8237C16.2643 13.0224 16.3128 13.2423 16.4613 13.3908L16.908 13.8375C17.8648 14.7943 17.8948 16.3521 16.9475 17.3182C15.9908 18.2939 14.4183 18.2997 13.4543 17.3356L11.1603 15.0419C10.1979 14.0795 10.2019 12.524 11.1603 11.5657C11.2866 11.4396 11.4139 11.3416 11.5133 11.2732C11.5836 11.2249 11.6417 11.1608 11.6829 11.0861C11.724 11.0114 11.7472 10.9281 11.7504 10.8428C11.764 10.4821 11.6361 10.1104 11.3511 9.82531L10.6324 9.10654C10.4439 8.91806 10.1482 8.89492 9.92967 9.04744C9.67938 9.22221 9.44495 9.41866 9.22909 9.63451ZM4.41789 4.82307C6.44093 2.8 9.73279 2.79973 11.7561 4.82307L14.0502 7.11713C14.0543 7.12122 14.0587 7.12566 14.0625 7.12976C16.0618 9.1402 16.0898 12.4136 14.0502 14.4554C13.8343 14.6712 13.5999 14.8677 13.3497 15.0424C13.1311 15.1949 12.8354 15.1718 12.647 14.9833L11.9282 14.2645C11.6432 13.9795 11.5154 13.6078 11.5289 13.247C11.5322 13.1618 11.5553 13.0785 11.5965 13.0038C11.6376 12.929 11.6957 12.865 11.766 12.8167C11.8654 12.7482 11.9927 12.6503 12.1191 12.5242C13.0774 11.5658 13.0814 10.0103 12.1191 9.04792L9.825 6.75421C8.86098 5.79019 7.28857 5.79599 6.33186 6.77162C5.38453 7.73771 5.41451 9.29556 6.37129 10.2523L6.81805 10.6991C6.96655 10.8476 7.01499 11.0674 6.94719 11.2662C6.74701 11.8531 6.63852 12.4609 6.61639 13.0659C6.59902 13.5407 6.02055 13.7639 5.68464 13.428L4.41792 12.1613C2.39455 10.1383 2.39455 6.84607 4.41789 4.82307Z" fill="black"/>
</svg>
