<svg width="48" height="48" viewBox="0 0 48 48" fill="none" xmlns="http://www.w3.org/2000/svg">
<path d="M42.75 9.00098V28.501C42.75 29.4955 42.3549 30.4494 41.6516 31.1526C40.9484 31.8559 39.9946 32.251 39 32.251H21.1725C21.5542 32.6887 21.7519 33.257 21.7242 33.837C21.6965 34.4171 21.4456 34.964 21.024 35.3634C20.6024 35.7627 20.0427 35.9836 19.4619 35.9798C18.8812 35.9759 18.3245 35.7477 17.9081 35.3429L14.1581 31.5929C13.9484 31.3838 13.7819 31.1354 13.6684 30.8619C13.5548 30.5885 13.4964 30.2952 13.4964 29.9991C13.4964 29.703 13.5548 29.4098 13.6684 29.1363C13.7819 28.8628 13.9484 28.6144 14.1581 28.4054L17.9081 24.6554C18.3223 24.2385 18.8832 24.0002 19.4708 23.9914C20.0584 23.9826 20.6261 24.2041 21.0525 24.6085C21.4789 25.0129 21.7302 25.5681 21.7527 26.1553C21.7751 26.7426 21.5668 27.3153 21.1725 27.751H38.25V9.75098H18.75C18.75 10.3477 18.5129 10.92 18.091 11.342C17.669 11.7639 17.0967 12.001 16.5 12.001C15.9033 12.001 15.331 11.7639 14.909 11.342C14.4871 10.92 14.25 10.3477 14.25 9.75098V9.00098C14.25 8.00641 14.6451 7.05259 15.3483 6.34933C16.0516 5.64606 17.0054 5.25098 18 5.25098H39C39.9946 5.25098 40.9484 5.64606 41.6516 6.34933C42.3549 7.05259 42.75 8.00641 42.75 9.00098ZM31.5 36.001C30.9033 36.001 30.331 36.238 29.909 36.66C29.4871 37.0819 29.25 37.6542 29.25 38.251H9.75V20.251H26.8275C26.4458 20.6887 26.2481 21.257 26.2758 21.837C26.3035 22.4171 26.5544 22.964 26.976 23.3634C27.3976 23.7627 27.9573 23.9836 28.5381 23.9798C29.1188 23.9759 29.6755 23.7477 30.0919 23.3429L33.8419 19.5929C34.0516 19.3838 34.2181 19.1354 34.3316 18.8619C34.4452 18.5885 34.5037 18.2952 34.5037 17.9991C34.5037 17.703 34.4452 17.4098 34.3316 17.1363C34.2181 16.8628 34.0516 16.6144 33.8419 16.4054L30.0919 12.6554C29.6777 12.2385 29.1168 12.0002 28.5292 11.9914C27.9416 11.9826 27.3739 12.2041 26.9475 12.6085C26.5211 13.0129 26.2698 13.5681 26.2473 14.1553C26.2249 14.7426 26.4332 15.3153 26.8275 15.751H9C8.00544 15.751 7.05161 16.1461 6.34835 16.8493C5.64509 17.5526 5.25 18.5064 5.25 19.501V39.001C5.25 39.9955 5.64509 40.9494 6.34835 41.6526C7.05161 42.3559 8.00544 42.751 9 42.751H30C30.9946 42.751 31.9484 42.3559 32.6516 41.6526C33.3549 40.9494 33.75 39.9955 33.75 39.001V38.251C33.75 37.6542 33.5129 37.0819 33.091 36.66C32.669 36.238 32.0967 36.001 31.5 36.001Z" fill="black"/>
</svg>
