<svg width="129" height="37" viewBox="0 0 129 37" fill="none" xmlns="http://www.w3.org/2000/svg">
<path d="M17.8634 1.3398C17.931 0.770849 18.7565 0.770849 18.8241 1.3398L19.3904 6.11275C20.1217 12.2759 24.9809 17.1351 31.144 17.8664L35.917 18.4327C36.486 18.5003 36.486 19.3259 35.917 19.3934L31.144 19.9598C24.9809 20.6911 20.1217 25.5502 19.3904 31.7134L18.8241 36.4863C18.7565 37.0553 17.931 37.0553 17.8634 36.4863L17.2971 31.7134C16.5658 25.5502 11.7066 20.6911 5.54341 19.9598L0.770461 19.3934C0.201513 19.3259 0.201513 18.5003 0.770461 18.4327L5.54341 17.8664C11.7066 17.1351 16.5658 12.2759 17.2971 6.11275L17.8634 1.3398Z" fill="#7DB00D"/>
<path d="M63.8634 1.3398C63.931 0.770849 64.7565 0.770849 64.8241 1.3398L65.3904 6.11275C66.1217 12.2759 70.9809 17.1351 77.144 17.8664L81.917 18.4327C82.486 18.5003 82.486 19.3259 81.917 19.3934L77.144 19.9598C70.9809 20.6911 66.1217 25.5503 65.3904 31.7134L64.8241 36.4863C64.7565 37.0553 63.931 37.0553 63.8634 36.4863L63.2971 31.7134C62.5658 25.5503 57.7066 20.6911 51.5434 19.9598L46.7705 19.3934C46.2015 19.3259 46.2015 18.5003 46.7705 18.4327L51.5434 17.8664C57.7066 17.1351 62.5658 12.2759 63.2971 6.11275L63.8634 1.3398Z" fill="#7DB00D"/>
<path d="M109.863 1.3398C109.931 0.770849 110.757 0.770849 110.824 1.3398L111.39 6.11275C112.122 12.2759 116.981 17.1351 123.144 17.8664L127.917 18.4327C128.486 18.5003 128.486 19.3259 127.917 19.3934L123.144 19.9598C116.981 20.6911 112.122 25.5502 111.39 31.7134L110.824 36.4863C110.757 37.0553 109.931 37.0553 109.863 36.4863L109.297 31.7134C108.566 25.5502 103.707 20.6911 97.5434 19.9598L92.7705 19.3934C92.2015 19.3259 92.2015 18.5003 92.7705 18.4327L97.5434 17.8664C103.707 17.1351 108.566 12.2759 109.297 6.11275L109.863 1.3398Z" fill="#7DB00D"/>
</svg>
