<svg width="129" height="37" viewBox="0 0 129 37" fill="none" xmlns="http://www.w3.org/2000/svg">
<path d="M18.4015 1.15864C18.469 0.589697 19.2946 0.589697 19.3622 1.15864L19.9285 5.9316C20.6598 12.0948 25.519 16.954 31.6821 17.6852L36.4551 18.2516C37.0241 18.3191 37.0241 19.1447 36.4551 19.2123L31.6821 19.7786C25.519 20.5099 20.6598 25.3691 19.9285 31.5322L19.3622 36.3052C19.2946 36.8742 18.469 36.8742 18.4015 36.3052L17.8351 31.5322C17.1039 25.3691 12.2447 20.5099 6.0815 19.7786L1.30855 19.2123C0.739599 19.1447 0.739599 18.3191 1.30855 18.2516L6.0815 17.6852C12.2447 16.954 17.1039 12.0948 17.8351 5.9316L18.4015 1.15864Z" fill="#A11239"/>
<path d="M64.4015 1.15864C64.469 0.589697 65.2946 0.589697 65.3622 1.15864L65.9285 5.9316C66.6598 12.0948 71.519 16.954 77.6821 17.6852L82.4551 18.2516C83.0241 18.3191 83.0241 19.1447 82.4551 19.2123L77.6821 19.7786C71.519 20.5099 66.6598 25.3691 65.9285 31.5322L65.3622 36.3052C65.2946 36.8742 64.469 36.8742 64.4015 36.3052L63.8351 31.5322C63.1039 25.3691 58.2447 20.5099 52.0815 19.7786L47.3085 19.2123C46.7396 19.1447 46.7396 18.3191 47.3085 18.2516L52.0815 17.6852C58.2447 16.954 63.1039 12.0948 63.8351 5.9316L64.4015 1.15864Z" fill="#A11239"/>
<path d="M110.401 1.15864C110.469 0.589697 111.295 0.589697 111.362 1.15864L111.929 5.9316C112.66 12.0948 117.519 16.954 123.682 17.6852L128.455 18.2516C129.024 18.3191 129.024 19.1447 128.455 19.2123L123.682 19.7786C117.519 20.5099 112.66 25.3691 111.929 31.5322L111.362 36.3052C111.295 36.8742 110.469 36.8742 110.401 36.3052L109.835 31.5322C109.104 25.3691 104.245 20.5099 98.0815 19.7786L93.3085 19.2123C92.7396 19.1447 92.7396 18.3191 93.3085 18.2516L98.0815 17.6852C104.245 16.954 109.104 12.0948 109.835 5.9316L110.401 1.15864Z" fill="#A11239"/>
</svg>
