<svg width="129" height="37" viewBox="0 0 129 37" fill="none" xmlns="http://www.w3.org/2000/svg">
<path d="M17.9972 1.37788C18.0647 0.808935 18.8903 0.808935 18.9579 1.37788L19.5242 6.15084C20.2555 12.314 25.1147 17.1732 31.2778 17.9045L36.0508 18.4708C36.6198 18.5384 36.6198 19.364 36.0508 19.4315L31.2778 19.9979C25.1147 20.7291 20.2555 25.5883 19.5242 31.7515L18.9579 36.5244C18.8903 37.0934 18.0647 37.0934 17.9972 36.5244L17.4309 31.7515C16.6996 25.5883 11.8404 20.7291 5.6772 19.9979L0.90425 19.4315C0.335302 19.364 0.335302 18.5384 0.90425 18.4708L5.6772 17.9045C11.8404 17.1732 16.6996 12.314 17.4309 6.15084L17.9972 1.37788Z" fill="#AE35AB"/>
<path d="M63.9972 1.37788C64.0647 0.808935 64.8903 0.808935 64.9579 1.37788L65.5242 6.15084C66.2555 12.314 71.1147 17.1732 77.2778 17.9045L82.0508 18.4708C82.6198 18.5384 82.6198 19.364 82.0508 19.4315L77.2778 19.9979C71.1147 20.7291 66.2555 25.5883 65.5242 31.7515L64.9579 36.5244C64.8903 37.0934 64.0647 37.0934 63.9972 36.5244L63.4309 31.7515C62.6996 25.5883 57.8404 20.7291 51.6772 19.9979L46.9042 19.4315C46.3353 19.364 46.3353 18.5384 46.9042 18.4708L51.6772 17.9045C57.8404 17.1732 62.6996 12.314 63.4309 6.15084L63.9972 1.37788Z" fill="#AE35AB"/>
<path d="M109.997 1.37788C110.065 0.808935 110.89 0.808935 110.958 1.37788L111.524 6.15084C112.256 12.314 117.115 17.1732 123.278 17.9045L128.051 18.4708C128.62 18.5384 128.62 19.364 128.051 19.4315L123.278 19.9979C117.115 20.7291 112.256 25.5883 111.524 31.7515L110.958 36.5244C110.89 37.0934 110.065 37.0934 109.997 36.5244L109.431 31.7515C108.7 25.5883 103.84 20.7291 97.6772 19.9979L92.9042 19.4315C92.3353 19.364 92.3353 18.5384 92.9042 18.4708L97.6772 17.9045C103.84 17.1732 108.7 12.314 109.431 6.15084L109.997 1.37788Z" fill="#AE35AB"/>
</svg>
