<svg width="22" height="22" viewBox="0 0 22 22" fill="none" xmlns="http://www.w3.org/2000/svg">
<path id="Star 1" d="M10.0621 1.3431C10.3843 0.47248 11.6157 0.472481 11.9379 1.3431L14.1332 7.27597C14.2345 7.54969 14.4503 7.7655 14.724 7.86679L20.6569 10.0621C21.5275 10.3843 21.5275 11.6157 20.6569 11.9379L14.724 14.1332C14.4503 14.2345 14.2345 14.4503 14.1332 14.724L11.9379 20.6569C11.6157 21.5275 10.3843 21.5275 10.0621 20.6569L7.86679 14.724C7.7655 14.4503 7.54969 14.2345 7.27597 14.1332L1.3431 11.9379C0.47248 11.6157 0.472481 10.3843 1.3431 10.0621L7.27597 7.86679C7.54969 7.7655 7.7655 7.54969 7.86679 7.27597L10.0621 1.3431Z" fill="white"/>
</svg>
