<svg width="42" height="42" viewBox="0 0 42 42" fill="none" xmlns="http://www.w3.org/2000/svg">
<path d="M20.4115 0.655381C20.4897 -0.00329122 21.4455 -0.00329122 21.5237 0.655381L22.1793 6.18105C23.0259 13.3162 28.6514 18.9417 35.7865 19.7883L41.3122 20.4439C41.9709 20.5221 41.9709 21.4779 41.3122 21.5562L35.7865 22.2118C28.6514 23.0584 23.0259 28.6839 22.1793 35.819L21.5237 41.3446C21.4455 42.0034 20.4897 42.0034 20.4115 41.3446L19.7558 35.819C18.9092 28.6839 13.2837 23.0584 6.14858 22.2118L0.622911 21.5562C-0.0357619 21.4779 -0.0357619 20.5221 0.622911 20.4439L6.14858 19.7883C13.2837 18.9417 18.9092 13.3162 19.7558 6.18105L20.4115 0.655381Z" fill="white"/>
</svg>
